<svg width="798" height="822" viewBox="0 0 798 822" fill="none" xmlns="http://www.w3.org/2000/svg">
<path d="M492.561 122.946C346.436 -20.5537 130.734 7.58086 53.359 128.971C-16.6496 238.803 53.3592 398.636 208.927 398.636C364.495 398.636 414.7 307.012 568.12 316.351C721.539 325.69 804.419 499.802 759.526 610.457C668.303 835.314 352.737 843.467 196.811 698.696" stroke="#F9F1E8" stroke-width="52.5" stroke-linecap="round"/>
<path d="M601.936 193.821C601.936 217.984 582.348 237.571 558.186 237.571C534.024 237.571 514.436 217.984 514.436 193.821C514.436 169.659 534.024 150.071 558.186 150.071C582.348 150.071 601.936 169.659 601.936 193.821Z" fill="#7BC7C4"/>
<circle cx="134.686" cy="633.071" r="43.75" fill="#F4D35E"/>
<path d="M583.561 77.4463L597.561 18.8213" stroke="#F9F1E8" stroke-width="22.75" stroke-linecap="round"/>
<path d="M636.061 98.4463L679.811 46.8213" stroke="#F9F1E8" stroke-width="22.75" stroke-linecap="round"/>
<path d="M670.186 142.196L727.061 118.571" stroke="#F9F1E8" stroke-width="22.75" stroke-linecap="round"/>
</svg>
