<svg width="1256" height="508" viewBox="0 0 1256 508" fill="none" xmlns="http://www.w3.org/2000/svg">
<path d="M979.502 162.36C990.392 156.915 1001.83 153.104 1013.81 150.925C1025.78 148.384 1037.58 147.84 1049.2 149.292C1061.18 150.381 1072.61 153.467 1083.5 158.549C1094.39 163.268 1104.56 170.165 1113.99 179.24C1123.43 188.678 1130.69 199.023 1135.77 210.276C1140.86 221.529 1144.49 234.053 1146.66 247.847C1148.12 257.285 1150.47 265.997 1153.74 273.983C1157.01 281.969 1160.46 289.955 1164.09 297.941C1168.08 305.927 1171.71 313.913 1174.98 321.899C1178.61 329.885 1181.51 338.234 1183.69 346.946C1185.5 355.295 1184.78 363.462 1181.51 371.448C1178.61 379.071 1172.44 383.79 1163 385.605C1157.55 386.694 1152.29 386.331 1147.21 384.516C1142.49 382.338 1138.13 379.434 1134.14 375.804C1130.15 371.811 1126.52 367.637 1123.25 363.281C1120.35 358.562 1117.62 354.206 1115.08 350.213C1106.73 361.103 1097.66 369.633 1087.86 375.804C1078.06 381.612 1066.26 385.424 1052.46 387.239C1040.85 388.691 1029.78 389.054 1019.25 388.328C1008.72 387.602 997.47 385.605 985.491 382.338C969.882 378.345 956.996 371.448 946.832 361.647C937.031 351.483 929.408 339.867 923.963 326.799C918.881 313.368 916.158 299.03 915.795 283.784C915.432 268.538 917.247 253.473 921.24 238.59C926.322 218.988 933.945 203.016 944.109 190.674C954.273 178.332 966.071 168.894 979.502 162.36ZM993.114 226.067C988.032 231.149 984.039 237.138 981.135 244.035C978.231 250.932 976.416 258.192 975.69 265.815C975.327 273.438 976.053 281.061 977.868 288.684C979.683 296.307 982.587 303.022 986.58 308.831C990.21 313.912 996.381 318.269 1005.09 321.899C1013.81 325.166 1022.88 327.162 1032.32 327.888C1043.21 328.614 1052.65 325.71 1060.63 319.176C1068.98 312.642 1075.15 304.475 1079.15 294.674C1083.5 284.51 1085.5 273.801 1085.13 262.548C1084.77 250.932 1081.69 240.405 1075.88 230.967C1071.52 224.07 1065.71 218.988 1058.45 215.721C1051.56 212.454 1044.12 210.821 1036.13 210.821C1028.14 210.458 1020.16 211.728 1012.17 214.632C1004.55 217.173 998.196 220.985 993.114 226.067Z" fill="#F8F1E7"/>
<path d="M832.855 262.449C840.841 270.798 846.65 276.969 850.28 280.962C854.273 284.592 856.995 287.315 858.447 289.13C860.262 290.945 861.533 292.034 862.259 292.397C862.985 292.76 864.255 293.849 866.07 295.664C867.885 297.479 870.789 300.382 874.782 304.375C878.775 308.005 884.764 313.995 892.75 322.344C899.284 328.878 904.548 336.501 908.541 345.213C912.897 353.562 912.534 362.637 907.452 372.438C904.548 377.52 901.281 381.15 897.651 383.328C894.021 385.143 890.028 385.869 885.672 385.506C881.679 385.143 877.323 383.873 872.604 381.695C868.248 379.517 863.892 376.794 859.536 373.527C851.187 367.356 843.201 360.277 835.578 352.291C827.955 343.942 821.784 337.59 817.065 333.234C813.798 329.967 811.802 327.789 811.076 326.7C810.35 325.974 809.624 325.43 808.898 325.067C808.172 324.341 807.446 323.615 806.72 322.889C804.179 320.348 801.456 317.806 798.552 315.265C795.648 312.724 792.744 310.002 789.84 307.098V328.334C789.84 332.327 790.022 335.23 790.385 337.045C790.385 340.675 790.203 343.398 789.84 345.213C788.751 349.206 788.206 353.018 788.206 356.648C787.843 358.463 787.481 360.278 787.118 362.093C786.755 363.545 786.21 365.178 785.484 366.993C785.121 367.719 784.758 368.263 784.395 368.626C784.395 368.989 784.395 369.534 784.395 370.26C784.032 370.986 783.669 371.531 783.306 371.894C783.306 372.257 783.124 372.801 782.761 373.527C780.946 377.157 778.043 380.606 774.05 383.873C767.153 387.866 758.622 388.955 748.458 387.14C743.013 386.051 738.839 384.054 735.935 381.15C732.668 378.972 730.489 375.887 729.4 371.894C728.674 370.079 727.949 368.264 727.223 366.449C726.86 364.271 726.315 362.274 725.589 360.459C724.863 358.644 724.5 357.011 724.5 355.559C724.5 353.744 724.5 352.292 724.5 351.203V41.382C724.5 39.204 724.5 37.026 724.5 34.848C724.5 32.67 724.682 30.492 725.045 28.314C725.408 26.136 725.771 24.1395 726.134 22.3245C726.86 20.1465 727.585 18.15 728.311 16.335C729.763 12.705 731.578 9.80099 733.756 7.623C735.571 5.808 737.386 4.5375 739.201 3.81148C741.379 2.7225 743.376 1.815 745.191 1.08898C747.006 0.725988 749.002 0.544492 751.18 0.544492C753.721 0.181496 756.081 0 758.259 0C763.341 0 768.423 1.45199 773.505 4.35598C778.224 7.62298 781.672 11.7975 783.85 16.8795C786.754 23.7765 788.206 30.492 788.206 37.026C788.569 40.656 788.932 46.2825 789.295 53.9055C789.658 61.1655 789.84 66.6105 789.84 70.2405V72.4185C790.203 84.3975 790.385 95.832 790.385 106.722C790.385 117.612 790.385 129.409 790.385 142.114C790.022 154.82 789.84 166.98 789.84 178.596C789.84 189.849 789.84 201.102 789.84 212.355V218.344C792.744 215.441 795.648 212.718 798.552 210.177C801.456 207.636 804.179 204.914 806.72 202.009C808.172 200.921 809.624 199.65 811.076 198.198L817.065 192.209C821.784 187.49 827.955 181.137 835.578 173.151C843.201 164.802 851.187 157.542 859.536 151.371C868.611 144.837 877.323 140.844 885.672 139.392C894.384 137.94 901.644 142.296 907.452 152.46C912.534 162.261 912.897 171.517 908.541 180.229C904.548 188.578 899.284 196.383 892.75 203.643C884.764 211.992 878.775 218.163 874.782 222.156C870.789 225.786 867.885 228.509 866.07 230.324C864.255 231.775 862.985 232.683 862.259 233.046C861.533 233.409 860.262 234.498 858.447 236.313C856.995 237.765 854.273 240.487 850.28 244.48C846.65 248.11 840.841 254.1 832.855 262.449Z" fill="#F8F1E7"/>
<path d="M475.294 189.374C475.294 181.025 475.113 172.131 474.75 162.693C474.75 153.255 476.384 144.725 479.651 137.102C482.555 130.205 487.273 125.304 493.807 122.4C500.704 119.133 507.42 118.407 513.954 120.222C520.488 121.311 525.57 123.308 529.2 126.212C532.83 129.116 535.371 132.564 536.823 136.557C538.638 140.187 539.727 144.543 540.09 149.625C540.453 154.344 540.816 159.063 541.179 163.782C544.809 157.248 549.346 151.985 554.791 147.992C560.236 143.999 565.863 140.732 571.671 138.191C577.479 135.65 582.924 133.835 588.006 132.746C593.451 131.657 597.626 131.112 600.53 131.112C614.324 131.112 627.936 134.198 641.367 140.369C655.161 146.177 666.595 154.526 675.67 165.416C680.752 171.95 684.564 178.847 687.105 186.107C690.009 193.004 692.006 200.264 693.095 207.887C694.547 215.51 695.454 223.314 695.817 231.3C696.18 238.923 696.543 246.728 696.906 254.714C698.721 277.946 698.721 300.996 696.906 323.865C696.543 328.584 696.361 334.029 696.361 340.2C696.361 346.371 695.817 352.542 694.728 358.713C694.002 364.521 692.368 369.785 689.827 374.504C687.649 378.86 683.838 381.582 678.393 382.671C670.77 384.486 664.417 384.849 659.335 383.76C654.616 383.034 650.805 381.401 647.901 378.86C644.997 376.319 642.819 373.052 641.367 369.059C639.915 365.066 638.644 360.528 637.555 355.446C636.829 351.453 636.103 346.916 635.377 341.834C635.014 336.389 634.652 330.944 634.289 325.499C634.289 320.054 634.107 314.79 633.744 309.708C633.744 304.263 633.744 299.363 633.744 295.007C633.744 288.11 633.563 280.487 633.2 272.138C632.837 263.789 632.837 255.984 633.2 248.724C633.2 231.663 628.662 218.777 619.587 210.065C610.875 200.99 598.896 197.178 583.65 198.63C572.034 200.082 561.87 204.801 553.158 212.787C544.446 220.41 540.271 230.393 540.634 242.735C540.634 247.454 540.634 251.81 540.634 255.803C540.634 259.796 540.453 263.789 540.09 267.782C540.09 271.775 540.09 276.131 540.09 280.85C540.09 285.569 540.09 290.832 540.09 296.64C540.09 308.619 540.09 321.324 540.09 334.755C540.09 347.823 538.456 358.532 535.189 366.881C532.285 375.593 527.385 381.582 520.488 384.849C513.591 388.116 505.424 387.209 495.986 382.127C491.993 379.949 488.725 377.045 486.184 373.415C484.006 369.422 482.191 365.247 480.739 360.891C479.65 356.535 478.924 352.179 478.561 347.823C478.198 343.104 477.836 338.748 477.472 334.755C476.384 322.776 475.657 311.705 475.294 301.541C475.294 291.014 475.294 279.761 475.294 267.782V189.374Z" fill="#F8F1E7"/>
<path d="M456.367 143.447C459.634 148.529 461.086 153.974 460.723 159.782C460.723 168.131 459.271 175.391 456.367 181.562C455.641 183.377 454.552 185.736 453.1 188.64C452.011 191.544 450.74 194.63 449.288 197.897C448.199 201.164 446.929 204.249 445.477 207.153C444.025 210.057 442.936 212.235 442.21 213.687L441.121 216.41C436.039 227.663 431.138 238.553 426.419 249.08C421.7 259.607 416.437 270.86 410.629 282.839C404.821 294.455 399.194 305.889 393.749 317.142C388.667 328.032 383.585 338.741 378.503 349.268C377.051 352.172 375.781 355.076 374.692 357.98C373.603 360.521 372.151 363.243 370.336 366.147L344.2 422.231C339.481 431.669 334.943 440.925 330.587 450C326.594 459.075 322.057 468.15 316.975 477.225C315.886 479.04 314.797 480.674 313.708 482.126C312.982 483.941 312.256 485.756 311.53 487.571C308.989 491.927 305.177 496.101 300.095 500.094C295.376 504.45 290.294 506.81 284.849 507.173C275.048 507.899 266.518 504.995 259.258 498.461C254.902 495.92 251.453 492.29 248.912 487.571C247.46 484.304 246.734 480.129 246.734 475.047C247.097 472.869 247.279 470.691 247.279 468.513C247.642 466.698 248.005 464.883 248.368 463.068C249.094 461.253 249.638 459.438 250.001 457.623C250.364 455.808 250.909 454.356 251.635 453.267C252.724 450.363 253.631 448.911 254.357 448.911L294.106 362.88C292.291 358.887 290.476 354.894 288.661 350.901C286.846 346.545 285.212 342.734 283.76 339.467C279.041 328.214 273.959 316.416 268.514 304.074C263.432 291.369 258.169 278.846 252.724 266.504C247.279 253.799 241.652 241.457 235.844 229.478C230.036 217.499 224.228 206.064 218.42 195.174C216.242 191.544 214.246 187.733 212.431 183.74C210.616 179.384 209.164 175.209 208.075 171.216C206.986 166.86 206.623 162.504 206.986 158.148C207.349 153.792 208.982 149.436 211.886 145.08C214.79 139.635 218.602 135.824 223.321 133.646C228.04 131.105 232.94 130.016 238.022 130.379C243.467 130.379 248.549 131.468 253.268 133.646C257.987 135.824 261.799 138.728 264.703 142.358C270.874 148.892 275.774 156.152 279.404 164.138C283.034 172.124 286.483 180.291 289.75 188.64C296.647 203.16 303.725 218.406 310.985 234.378C318.245 250.35 325.505 265.959 332.765 281.205L361.079 221.31C363.983 215.502 366.524 209.876 368.702 204.431C371.243 198.986 373.784 193.722 376.325 188.64C379.229 182.469 381.952 176.117 384.493 169.583C387.397 163.049 390.664 157.059 394.294 151.614C395.02 150.162 395.746 148.892 396.472 147.803C397.198 146.714 397.924 145.443 398.65 143.991C401.917 139.635 404.821 136.187 407.362 133.646C409.177 132.194 410.629 131.105 411.718 130.379C413.17 129.29 414.803 128.564 416.618 128.201C419.159 127.475 421.519 127.112 423.697 127.112C426.238 126.749 428.597 126.749 430.775 127.112C434.405 128.201 438.761 129.834 443.843 132.012C449.288 134.19 453.463 138.002 456.367 143.447Z" fill="#F8F1E7"/>
<path d="M130.136 289.315C123.239 284.959 115.434 281.51 106.722 278.969C98.373 276.428 89.661 274.069 80.586 271.891C71.874 269.713 63.3435 267.353 54.9945 264.812C46.6455 261.908 39.0225 257.915 32.1255 252.833C17.2425 241.58 8.5305 227.786 5.9895 211.451C3.8115 194.753 7.4415 178.055 16.8795 161.357C21.9615 152.645 28.677 145.567 37.026 140.122C45.375 134.314 54.45 129.958 64.251 127.054C74.415 123.787 84.7605 121.972 95.2875 121.609C105.815 121.246 115.797 121.79 125.235 123.242C131.406 124.331 137.94 125.965 144.837 128.143C151.734 129.958 158.087 132.499 163.895 135.766C170.066 139.033 175.511 143.207 180.23 148.289C185.312 153.008 188.942 158.998 191.12 166.258C192.572 170.977 192.753 175.514 191.664 179.87C190.938 184.226 189.123 187.856 186.219 190.76C183.678 193.664 180.23 195.842 175.874 197.294C171.881 198.746 167.525 199.109 162.806 198.383C157.361 197.294 152.279 195.661 147.56 193.483C142.841 191.305 138.122 188.945 133.403 186.404C128.684 183.863 123.783 181.685 118.701 179.87C113.982 178.055 108.9 177.148 103.455 177.148C95.106 176.785 88.209 178.237 82.764 181.504C77.319 184.771 73.5075 188.764 71.3295 193.483C69.5145 198.202 69.696 203.284 71.874 208.729C74.415 214.174 79.497 218.893 87.12 222.886C94.017 226.516 101.64 229.42 109.989 231.598C118.338 233.776 126.506 235.954 134.492 238.132C142.841 240.31 150.827 242.851 158.45 245.755C166.436 248.659 173.514 252.652 179.685 257.734C191.664 267.535 198.924 278.969 201.465 292.037C204.369 305.105 203.643 317.992 199.287 330.697C194.931 343.402 187.308 354.655 176.418 364.456C165.891 374.257 153.368 380.791 138.848 384.058C128.321 386.236 116.886 387.325 104.544 387.325C92.565 387.325 80.586 386.054 68.607 383.513C56.991 380.972 45.738 376.979 34.848 371.534C24.321 366.089 15.4275 359.192 8.1675 350.843C3.0855 345.035 0.362999 338.501 0 331.241C0 323.618 1.452 317.084 4.356 311.639C7.623 305.831 12.1605 301.838 17.9685 299.66C23.7765 297.482 30.3105 298.753 37.5705 303.472C43.3785 307.465 50.2755 311.458 58.2615 315.451C66.2475 319.081 74.2335 321.985 82.2195 324.163C90.2055 326.341 97.8285 327.43 105.089 327.43C112.712 327.43 119.246 325.796 124.691 322.529C132.677 317.447 136.851 311.639 137.214 305.105C137.577 298.208 135.218 292.945 130.136 289.315Z" fill="#F8F1E7"/>
<circle cx="1225.59" cy="359.336" r="28.5862" fill="#7BC7C4"/>
<path d="M1248.18 375.751L1247.08 374.944L1248.18 375.751ZM1228.53 387.219L1228.41 385.862L1228.53 387.219ZM1216.97 385.84L1216.53 387.13L1216.97 385.84ZM1199.98 370.622L1198.77 371.251L1199.98 370.622ZM1228.53 331.508L1228.35 332.857L1228.53 331.508ZM1239.62 335.178L1238.96 336.368L1239.62 335.178ZM1248.42 342.847L1249.51 342.03L1248.42 342.847ZM1252.94 365.152L1251.6 364.868C1250.82 368.557 1249.31 371.911 1247.08 374.944L1248.18 375.751L1249.28 376.557C1251.74 373.212 1253.4 369.501 1254.27 365.435L1252.94 365.152ZM1248.18 375.751L1247.08 374.944C1244.84 377.989 1242.11 380.493 1238.86 382.46L1239.57 383.624L1240.27 384.788C1243.82 382.637 1246.82 379.891 1249.28 376.557L1248.18 375.751ZM1239.57 383.624L1238.86 382.46C1235.64 384.411 1232.16 385.544 1228.41 385.862L1228.53 387.219L1228.64 388.575C1232.81 388.221 1236.69 386.957 1240.27 384.788L1239.57 383.624ZM1228.53 387.219L1228.41 385.862C1224.63 386.183 1220.97 385.745 1217.4 384.549L1216.97 385.84L1216.53 387.13C1220.46 388.446 1224.5 388.927 1228.64 388.575L1228.53 387.219ZM1216.97 385.84L1217.4 384.549C1213.84 383.355 1210.7 381.486 1207.97 378.937L1207.04 379.932L1206.11 380.927C1209.13 383.743 1212.6 385.813 1216.53 387.13L1216.97 385.84ZM1207.04 379.932L1207.97 378.937C1205.21 376.361 1202.95 373.382 1201.18 369.992L1199.98 370.622L1198.77 371.251C1200.68 374.911 1203.12 378.138 1206.11 380.927L1207.04 379.932ZM1199.98 370.622L1201.18 369.992C1199.46 366.693 1198.75 363.206 1199.03 359.502L1197.67 359.399L1196.31 359.295C1195.99 363.507 1196.81 367.501 1198.77 371.251L1199.98 370.622ZM1197.67 359.399L1199.03 359.502C1199.32 355.678 1200.16 351.998 1201.54 348.456L1200.27 347.961L1199.01 347.466C1197.52 351.26 1196.63 355.204 1196.31 359.295L1197.67 359.399ZM1200.27 347.961L1201.54 348.456C1202.9 344.982 1204.96 341.963 1207.73 339.388L1206.81 338.39L1205.88 337.392C1202.81 340.243 1200.51 343.604 1199.01 347.466L1200.27 347.961ZM1206.81 338.39L1207.73 339.388C1210.51 336.813 1213.7 334.958 1217.32 333.817L1216.91 332.519L1216.5 331.221C1212.5 332.483 1208.95 334.542 1205.88 337.392L1206.81 338.39ZM1216.91 332.519L1217.32 333.817C1220.94 332.676 1224.61 332.357 1228.35 332.857L1228.53 331.508L1228.71 330.158C1224.57 329.605 1220.5 329.96 1216.5 331.221L1216.91 332.519ZM1228.53 331.508L1228.35 332.857C1232.11 333.361 1235.65 334.531 1238.96 336.368L1239.62 335.178L1240.28 333.987C1236.67 331.985 1232.81 330.708 1228.71 330.158L1228.53 331.508ZM1239.62 335.178L1238.96 336.368C1242.26 338.194 1245.05 340.623 1247.33 343.664L1248.42 342.847L1249.51 342.03C1247 338.684 1243.92 336 1240.28 333.987L1239.62 335.178ZM1248.42 342.847L1247.33 343.664C1249.6 346.686 1251.04 350.031 1251.67 353.716L1253.01 353.486L1254.35 353.257C1253.65 349.142 1252.03 345.394 1249.51 342.03L1248.42 342.847ZM1253.01 353.486L1251.67 353.716C1252 355.667 1252.26 357.137 1252.44 358.121C1252.53 358.611 1252.61 358.991 1252.66 359.253C1252.69 359.38 1252.72 359.5 1252.74 359.596C1252.75 359.638 1252.77 359.713 1252.8 359.793C1252.82 359.825 1252.85 359.92 1252.92 360.028C1252.95 360.078 1253.02 360.194 1253.14 360.314C1253.25 360.412 1253.57 360.697 1254.09 360.697V359.336V357.975C1254.61 357.975 1254.94 358.26 1255.03 358.355C1255.16 358.473 1255.23 358.587 1255.26 358.633C1255.32 358.734 1255.35 358.817 1255.35 358.833C1255.37 358.883 1255.38 358.913 1255.37 358.894C1255.37 358.868 1255.35 358.805 1255.33 358.688C1255.28 358.463 1255.21 358.112 1255.12 357.627C1254.94 356.661 1254.69 355.206 1254.35 353.257L1253.01 353.486ZM1254.09 359.336V360.697C1253.48 360.697 1253.11 360.318 1252.96 360.086C1252.82 359.881 1252.78 359.691 1252.77 359.629C1252.73 359.483 1252.74 359.368 1252.74 359.351C1252.74 359.289 1252.74 359.25 1252.74 359.27C1252.74 359.293 1252.73 359.354 1252.71 359.47C1252.67 359.694 1252.6 360.042 1252.51 360.525C1252.32 361.485 1252.02 362.931 1251.6 364.868L1252.94 365.152L1254.27 365.435C1254.68 363.495 1254.98 362.034 1255.18 361.056C1255.28 360.568 1255.35 360.19 1255.39 359.93C1255.41 359.803 1255.43 359.683 1255.44 359.584C1255.45 359.543 1255.46 359.46 1255.46 359.366C1255.46 359.335 1255.46 359.208 1255.43 359.055C1255.41 358.989 1255.37 358.797 1255.23 358.59C1255.08 358.356 1254.71 357.975 1254.09 357.975V359.336Z" fill="#7BC7C4"/>
<circle cx="202.268" cy="416.016" r="28.5862" transform="rotate(101 202.268 416.016)" fill="#F4D35E"/>
<path d="M181.843 435.062L182.844 434.14L181.843 435.062ZM174.336 413.582L175.69 413.728L174.336 413.582ZM177.896 402.497L176.712 401.826L177.896 402.497ZM196.076 388.722L195.689 387.417L196.076 388.722ZM229.024 424.212L227.734 423.777L229.024 424.212ZM223.304 434.406L222.261 433.531L223.304 434.406ZM214.098 441.574L214.692 442.799L214.098 441.574ZM191.341 441.753L191.873 440.5C188.402 439.026 185.396 436.908 182.844 434.14L181.843 435.062L180.843 435.985C183.657 439.038 186.982 441.381 190.808 443.006L191.341 441.753ZM181.843 435.062L182.844 434.14C180.283 431.36 178.348 428.194 177.036 424.633L175.758 425.103L174.481 425.574C175.916 429.469 178.038 432.942 180.843 435.985L181.843 435.062ZM175.758 425.103L177.036 424.633C175.735 421.102 175.287 417.472 175.69 413.728L174.336 413.582L172.983 413.436C172.535 417.597 173.035 421.649 174.481 425.574L175.758 425.103ZM174.336 413.582L175.69 413.728C176.096 409.958 177.225 406.442 179.08 403.168L177.896 402.497L176.712 401.826C174.672 405.426 173.428 409.3 172.983 413.436L174.336 413.582ZM177.896 402.497L179.08 403.168C180.932 399.899 183.365 397.174 186.388 394.982L185.589 393.88L184.79 392.778C181.45 395.2 178.755 398.22 176.712 401.826L177.896 402.497ZM185.589 393.88L186.388 394.982C189.443 392.766 192.8 391.115 196.464 390.027L196.076 388.722L195.689 387.417C191.733 388.592 188.097 390.379 184.79 392.778L185.589 393.88ZM196.076 388.722L196.464 390.027C200.031 388.968 203.591 388.93 207.172 389.914L207.533 388.602L207.893 387.289C203.821 386.17 199.743 386.213 195.689 387.417L196.076 388.722ZM207.533 388.602L207.172 389.914C210.87 390.93 214.323 392.455 217.535 394.489L218.264 393.339L218.992 392.189C215.55 390.009 211.849 388.376 207.893 387.289L207.533 388.602ZM218.264 393.339L217.535 394.489C220.687 396.484 223.257 399.083 225.255 402.299L226.412 401.58L227.568 400.862C225.356 397.302 222.494 394.407 218.992 392.189L218.264 393.339ZM226.412 401.58L225.255 402.299C227.254 405.514 228.466 409 228.895 412.77L230.247 412.616L231.6 412.462C231.125 408.292 229.78 404.421 227.568 400.862L226.412 401.58ZM230.247 412.616L228.895 412.77C229.325 416.543 228.938 420.207 227.734 423.777L229.024 424.212L230.314 424.647C231.646 420.696 232.075 416.629 231.6 412.462L230.247 412.616ZM229.024 424.212L227.734 423.777C226.52 427.377 224.697 430.626 222.261 433.531L223.304 434.406L224.347 435.28C227.002 432.115 228.992 428.568 230.314 424.647L229.024 424.212ZM223.304 434.406L222.261 433.531C219.839 436.418 216.924 438.689 213.503 440.35L214.098 441.574L214.692 442.799C218.455 440.972 221.677 438.464 224.347 435.28L223.304 434.406ZM214.098 441.574L213.503 440.35C210.104 442 206.545 442.779 202.808 442.694L202.777 444.055L202.746 445.416C206.919 445.511 210.907 444.637 214.692 442.799L214.098 441.574ZM202.777 444.055L202.808 442.694C200.829 442.649 199.337 442.621 198.336 442.611C197.838 442.607 197.451 442.606 197.183 442.611C197.053 442.613 196.93 442.617 196.831 442.623C196.788 442.626 196.71 442.632 196.625 442.647C196.592 442.653 196.492 442.67 196.374 442.713C196.319 442.732 196.191 442.781 196.049 442.881C195.934 442.961 195.592 443.227 195.492 443.738L196.828 443.998L198.165 444.258C198.066 444.767 197.724 445.031 197.611 445.11C197.472 445.208 197.347 445.256 197.297 445.274C197.187 445.313 197.099 445.328 197.082 445.331C197.029 445.34 196.999 445.341 197.018 445.34C197.045 445.338 197.11 445.335 197.229 445.333C197.459 445.329 197.817 445.329 198.31 445.334C199.292 445.343 200.769 445.37 202.746 445.416L202.777 444.055ZM196.828 443.998L195.492 443.738C195.609 443.138 196.052 442.846 196.309 442.741C196.536 442.647 196.73 442.641 196.795 442.639C196.944 442.636 197.056 442.66 197.072 442.664C197.134 442.676 197.17 442.689 197.151 442.683C197.13 442.676 197.071 442.656 196.961 442.614C196.749 442.534 196.419 442.402 195.964 442.216C195.058 441.845 193.696 441.274 191.873 440.5L191.341 441.753L190.808 443.006C192.634 443.781 194.01 444.358 194.933 444.736C195.393 444.924 195.751 445.067 195.998 445.16C196.118 445.206 196.233 445.247 196.327 445.277C196.367 445.29 196.447 445.315 196.538 445.333C196.569 445.339 196.693 445.365 196.85 445.361C196.918 445.36 197.115 445.353 197.344 445.259C197.603 445.152 198.048 444.859 198.165 444.258L196.828 443.998Z" fill="#F4D35E"/>
</svg>
