<svg width="456" height="470" viewBox="0 0 456 470" fill="none" xmlns="http://www.w3.org/2000/svg">
<path d="M281.463 70.2549C197.963 -11.7451 74.7051 4.33178 30.4908 73.6975C-9.51413 136.459 30.4909 227.792 119.387 227.792C208.283 227.792 236.972 175.436 324.64 180.772C412.308 186.108 459.668 285.601 434.015 348.833C381.887 477.322 201.564 481.981 112.463 399.255" stroke="black" stroke-width="30" stroke-linecap="round"/>
<path d="M343.963 110.755C343.963 124.562 332.77 135.755 318.963 135.755C305.156 135.755 293.963 124.562 293.963 110.755C293.963 96.9478 305.156 85.7549 318.963 85.7549C332.77 85.7549 343.963 96.9478 343.963 110.755Z" fill="black"/>
<circle cx="76.9634" cy="361.755" r="25" fill="black"/>
<path d="M333.463 44.2549L341.463 10.7549" stroke="black" stroke-width="13" stroke-linecap="round"/>
<path d="M363.463 56.2549L388.463 26.7549" stroke="black" stroke-width="13" stroke-linecap="round"/>
<path d="M382.963 81.2549L415.463 67.7549" stroke="black" stroke-width="13" stroke-linecap="round"/>
</svg>
